<?xml version="1.0" encoding="UTF-8"?>
<svg xmlns="http://www.w3.org/2000/svg" viewBox="0 0 1080 1080"
     width="1080" height="1080">
<!-- KHADANE™ · Warm White · Mohan Lal & Sons · Locked asset. Zero alterations permitted. -->
<title>KHADANE™ — Warm White</title>
<rect width="1080" height="1080" fill="#F0EDE6"/>
<g transform="translate(-146.4937,173.1581) scale(2.243517)">
<g id="khadane-wordmark">
  <path fill="#B8962E" transform="translate(156.7600,173.6500) scale(0.051200,-0.051200)" d="M268 150 255 409 519 700H776L480 374L349 240ZM57 0V700H289V0ZM517 0 311 272 464 434 790 0Z"/>
  <path fill="#B8962E" transform="translate(196.7300,173.6500) scale(0.051200,-0.051200)" d="M511 0V700H747V0ZM57 0V700H293V0ZM277 258V452H527V258Z"/>
  <path fill="#B8962E" transform="translate(238.6900,173.6500) scale(0.051200,-0.051200)" d="M-19 0 287 700H519L825 0H581L355 588H447L221 0ZM163 122 223 292H545L605 122Z"/>
  <path fill="#111111" transform="translate(280.7600,173.6500) scale(0.051200,-0.051200)" d="M57 0V700H402Q519 700 608.0 657.5Q697 615 747.0 537.0Q797 459 797 350Q797 242 747.0 163.5Q697 85 608.0 42.5Q519 0 402 0ZM293 184H392Q442 184 479.5 203.0Q517 222 538.0 259.5Q559 297 559 350Q559 404 538.0 441.0Q517 478 479.5 497.0Q442 516 392 516H293Z"/>
  <path fill="#111111" transform="translate(323.3400,173.6500) scale(0.051200,-0.051200)" d="M-19 0 287 700H519L825 0H581L355 588H447L221 0ZM163 122 223 292H545L605 122Z"/>
  <path fill="#111111" transform="translate(365.4100,173.6500) scale(0.051200,-0.051200)" d="M57 0V700H251L607 274H517V700H747V0H553L197 426H287V0Z"/>
  <path fill="#111111" transform="translate(407.3700,173.6500) scale(0.051200,-0.051200)" d="M57 0V700H626V522H289V178H639V0ZM273 270V440H585V270Z"/>
  <path fill="#111111" transform="translate(444.2400,133.8100) scale(0.010400,-0.010400)" d="M458 285V700H569L753 423H695L874 700H984L986 285H862L860 524H881L752 324H692L557 524H582V285ZM139 285V601H4V700H411V601H275V285Z"/>
</g>
<g id="khadane-tagline">
  <path fill="#B8962E" transform="translate(239.9900,201.2300) scale(0.015200,-0.015200)" d="M617 131H621V0H693V578H814V642H-22V578H236V412C236 369 215 353 186 353C149 353 130 373 117 398L51 375C71 179 187 29 385 29C494 29 574 78 617 131ZM620 459H616C598 477 570 493 519 493C434 493 365 429 365 339C365 246 437 194 506 189L546 242C478 245 436 284 436 338C436 391 474 427 527 427C577 427 623 388 623 317C623 178 514 96 387 96C267 96 171 171 143 302C155 296 171 291 198 291C261 291 310 335 310 415V578H620Z"/>
  <path fill="#B8962E" transform="translate(252.2600,201.2300) scale(0.015200,-0.015200)" d="M241 387 398 425V578H545V642H-22V578H322V478L202 448C99 423 47 368 47 281C47 175 135 72 276 72C311 72 346 79 373 92L446 -40L535 -18L424 123C442 139 459 166 459 206C459 249 431 277 409 288L354 268V166C337 151 305 141 266 141C183 140 124 199 124 272C124 328 153 364 241 387Z"/>
  <path fill="#B8962E" transform="translate(260.4500,201.2300) scale(0.015200,-0.015200)" d="M174 578H295V642H-22V578H99V0H174Z"/>
  <path fill="#B8962E" transform="translate(264.8400,201.2300) scale(0.015200,-0.015200)" d="M93 217 139 233V325H339V0H414V578H535V642H-22V578H339V393H83L27 348C27 292 55 240 93 217Z"/>
  <path fill="#B8962E" transform="translate(281.1900,201.2300) scale(0.007422,-0.007422)" d="M2066 453H-19V527H2066Z"/>
  <path fill="#B8962E" transform="translate(303.0400,201.2300) scale(0.015200,-0.015200)" d="M142 0Q139 0 139.0 6.0Q139 12 142 12Q175 12 192.0 17.0Q209 22 217.5 37.0Q226 52 231 81L313 544Q320 584 310.5 596.0Q301 608 262 608H238Q198 608 170.0 593.0Q142 578 122.5 546.5Q103 515 88 464Q87 461 81.0 462.5Q75 464 76 466Q80 479 86.0 502.5Q92 526 99.0 553.0Q106 580 111.5 605.5Q117 631 120 647Q122 650 127.5 649.5Q133 649 132 646Q130 631 145.0 628.0Q160 625 171 625Q208 624 257.5 623.0Q307 622 354 622Q414 622 455.0 623.5Q496 625 530 625Q558 625 573.5 629.5Q589 634 596 650Q598 653 603.0 652.5Q608 652 607 648Q603 634 597.0 608.5Q591 583 584.5 555.0Q578 527 573.5 503.0Q569 479 567 466Q566 463 560.5 463.5Q555 464 556 468Q565 518 559.5 548.5Q554 579 531.0 593.5Q508 608 465 608H441Q402 608 389.5 594.5Q377 581 370 542L289 81Q284 52 287.0 37.0Q290 22 306.0 17.0Q322 12 356 12Q358 12 358.0 6.0Q358 0 356 0Q334 0 307.5 1.0Q281 2 248 2Q218 2 190.5 1.0Q163 0 142 0Z"/>
  <path fill="#B8962E" transform="translate(311.6800,201.2300) scale(0.015200,-0.015200)" d="M62 -8Q48 -8 43.5 -6.5Q39 -5 39 -2Q39 2 44.5 25.0Q50 48 54 74L156 619Q163 655 148.0 664.0Q133 673 88 651Q84 649 81.5 655.0Q79 661 83 662L212 725Q216 727 220.0 723.0Q224 719 223 717L94 7Q92 -8 62 -8ZM317 -9Q291 -9 284.5 13.0Q278 35 288 89L317 248Q328 305 319.0 332.5Q310 360 280 360Q248 360 213.0 319.0Q178 278 146.5 199.0Q115 120 94 7L82 8Q103 125 138.0 213.0Q173 301 218.5 350.0Q264 399 313 399Q356 399 369.5 368.0Q383 337 371 267L338 89Q333 59 337.5 45.0Q342 31 355 31Q366 31 383.0 43.5Q400 56 421 77Q425 81 429.0 77.0Q433 73 429 69Q397 32 370.0 11.5Q343 -9 317 -9Z"/>
  <path fill="#B8962E" transform="translate(318.7800,201.2300) scale(0.015200,-0.015200)" d="M155 -12Q102 -12 71.5 16.0Q41 44 31.5 89.0Q22 134 32 185Q38 222 58.5 260.5Q79 299 110.0 330.0Q141 361 179.0 380.0Q217 399 260 399Q297 399 314.5 384.5Q332 370 328 345Q323 321 300.0 299.0Q277 277 241.0 259.5Q205 242 160.5 229.0Q116 216 68 211L70 224Q147 235 199.5 259.5Q252 284 261 324Q268 351 252.0 361.5Q236 372 216 372Q182 372 157.0 351.0Q132 330 116.0 295.0Q100 260 93 218Q82 162 90.5 118.0Q99 74 125.0 48.0Q151 22 193 22Q217 22 243.0 29.0Q269 36 294 55Q297 57 300.5 53.0Q304 49 301 46Q263 15 227.0 1.5Q191 -12 155 -12Z"/>
  <path fill="#B8962E" transform="translate(328.0300,201.2300) scale(0.015200,-0.015200)" d="M1034 -189Q993 -204 950.0 -211.5Q907 -219 863 -219Q744 -219 611.0 -164.0Q478 -109 325 4L408 22Q493 -46 583.5 -93.5Q674 -141 763.5 -165.0Q853 -189 932 -189Q958 -189 982.5 -186.5Q1007 -184 1029 -179Q1033 -178 1035.0 -182.5Q1037 -187 1034 -189ZM284 -12Q203 -12 149.0 32.0Q95 76 74.5 150.0Q54 224 69 313Q81 384 113.0 443.0Q145 502 191.0 545.5Q237 589 293.0 612.5Q349 636 409 636Q495 636 549.0 592.0Q603 548 623.5 474.5Q644 401 628 313Q615 240 582.0 180.5Q549 121 502.0 78.0Q455 35 399.0 11.5Q343 -12 284 -12ZM326 14Q412 14 475.0 77.5Q538 141 561 260Q577 334 570.5 397.5Q564 461 538.0 509.5Q512 558 469.0 585.0Q426 612 369 612Q279 612 217.5 545.5Q156 479 135 366Q121 296 127.5 232.5Q134 169 158.5 120.0Q183 71 225.5 42.5Q268 14 326 14Z"/>
  <path fill="#B8962E" transform="translate(338.1600,201.2300) scale(0.015200,-0.015200)" d="M132 -13Q89 -13 74.0 18.5Q59 50 73 119L109 297Q115 328 110.0 341.5Q105 355 93 355Q82 355 65.0 342.5Q48 330 27 309Q23 305 19.0 309.0Q15 313 19 317Q52 355 79.0 375.0Q106 395 132 395Q156 395 163.5 373.0Q171 351 160 297L128 138Q115 80 125.0 53.0Q135 26 164 26Q197 26 232.0 67.0Q267 108 298.5 187.0Q330 266 350 379L363 378Q343 261 307.5 173.0Q272 85 227.0 36.0Q182 -13 132 -13ZM327 -9Q302 -9 296.0 12.5Q290 34 299 87L350 379Q353 394 382 394Q397 394 401.5 392.0Q406 390 406 388Q406 384 401.0 361.0Q396 338 391 312L350 89Q340 30 366 30Q378 30 396.0 42.0Q414 54 436 76Q439 80 443.0 75.5Q447 71 444 68Q409 29 381.5 10.0Q354 -9 327 -9Z"/>
  <path fill="#B8962E" transform="translate(345.4700,201.2300) scale(0.015200,-0.015200)" d="M81 -13Q48 -13 31.0 11.0Q14 35 21 91Q29 145 55.5 199.5Q82 254 120.5 299.0Q159 344 202.0 371.5Q245 399 284 399Q303 399 320.5 392.5Q338 386 351.0 370.5Q364 355 366 330L323 357Q336 359 352.5 373.5Q369 388 374 407Q376 410 381.5 409.0Q387 408 386 406L328 89Q318 31 343 31Q354 31 371.5 43.5Q389 56 409 77Q412 80 416.0 76.0Q420 72 417 69Q385 32 358.0 11.5Q331 -9 305 -9Q281 -9 274.0 13.0Q267 35 277 89L301 229L318 246Q288 170 248.0 111.5Q208 53 165.0 20.0Q122 -13 81 -13ZM117 36Q145 36 175.0 58.0Q205 80 232.5 115.5Q260 151 280.5 193.5Q301 236 309 277Q317 314 302.0 339.0Q287 364 250 364Q215 363 179.0 332.5Q143 302 115.0 251.5Q87 201 77 136Q70 86 79.5 61.0Q89 36 117 36Z"/>
  <path fill="#B8962E" transform="translate(352.3100,201.2300) scale(0.015200,-0.015200)" d="M111 7 101 8Q109 53 123.5 105.5Q138 158 157.0 209.0Q176 260 198.0 302.0Q220 344 243.0 369.5Q266 395 289 395Q303 395 316.0 387.5Q329 380 337.5 368.0Q346 356 343 341Q340 328 331.5 321.0Q323 314 311 314Q296 314 288.5 322.0Q281 330 275.5 338.5Q270 347 260 347Q246 347 229.0 323.5Q212 300 194.0 261.5Q176 223 159.5 177.5Q143 132 130.0 87.0Q117 42 111 7ZM79 -8Q65 -8 61.0 -6.5Q57 -5 57 -2Q57 2 62.5 26.5Q68 51 72 74L105 259Q113 299 111.0 319.5Q109 340 102.0 348.0Q95 356 87 356Q73 356 57.0 344.0Q41 332 26 319Q24 316 20.0 320.0Q16 324 18 327Q48 361 74.0 378.0Q100 395 126 395Q144 395 154.0 383.5Q164 372 165.0 343.0Q166 314 156 261L111 7Q108 -8 79 -8Z"/>
  <path fill="#B8962E" transform="translate(357.7200,201.2300) scale(0.015200,-0.015200)" d="M111 7 101 8Q109 53 123.5 105.5Q138 158 157.0 209.0Q176 260 198.0 302.0Q220 344 243.0 369.5Q266 395 289 395Q303 395 316.0 387.5Q329 380 337.5 368.0Q346 356 343 341Q340 328 331.5 321.0Q323 314 311 314Q296 314 288.5 322.0Q281 330 275.5 338.5Q270 347 260 347Q246 347 229.0 323.5Q212 300 194.0 261.5Q176 223 159.5 177.5Q143 132 130.0 87.0Q117 42 111 7ZM79 -8Q65 -8 61.0 -6.5Q57 -5 57 -2Q57 2 62.5 26.5Q68 51 72 74L105 259Q113 299 111.0 319.5Q109 340 102.0 348.0Q95 356 87 356Q73 356 57.0 344.0Q41 332 26 319Q24 316 20.0 320.0Q16 324 18 327Q48 361 74.0 378.0Q100 395 126 395Q144 395 154.0 383.5Q164 372 165.0 343.0Q166 314 156 261L111 7Q108 -8 79 -8Z"/>
  <path fill="#B8962E" transform="translate(363.1300,201.2300) scale(0.015200,-0.015200)" d="M-18 -281Q-36 -281 -48.0 -271.5Q-60 -262 -58 -239Q-51 -213 -18 -213Q3 -213 23.5 -212.0Q44 -211 63.5 -205.5Q83 -200 101 -188Q123 -173 152.0 -136.5Q181 -100 213.0 -52.5Q245 -5 274.0 45.0Q303 95 323.5 139.0Q344 183 351 211Q358 240 356.0 264.0Q354 288 348.0 306.5Q342 325 337.0 339.5Q332 354 332 363Q332 378 342.0 387.0Q352 396 368 396Q389 396 397.5 381.0Q406 366 406 341Q406 305 390.0 254.5Q374 204 346.5 145.0Q319 86 283.5 26.5Q248 -33 208.5 -88.5Q169 -144 128.0 -187.0Q87 -230 49.5 -255.5Q12 -281 -18 -281ZM182 -113Q188 108 157.5 229.5Q127 351 69 351Q56 351 42.5 343.0Q29 335 19 314Q17 310 11.5 311.5Q6 313 7 317Q26 355 49.0 375.0Q72 395 100 395Q135 395 162.0 361.0Q189 327 206.0 267.5Q223 208 230.0 130.5Q237 53 232 -35Z"/>
</g>
</g>
</svg>
