<svg xmlns="http://www.w3.org/2000/svg" viewBox="0 0 2400 1600" width="2400" height="1600" preserveAspectRatio="xMidYMid slice">
  <!-- Background gradient (stone tones) -->
  <defs>
    <radialGradient id="bg_KHADANE™" cx="30%" cy="30%" r="80%">
      <stop offset="0%" stop-color="#C8B48A" stop-opacity="1"/>
      <stop offset="55%" stop-color="#6B4A2E" stop-opacity="1"/>
      <stop offset="100%" stop-color="#3D2B1A" stop-opacity="1"/>
    </radialGradient>
    <filter id="noise_KHADANE™">
      <feTurbulence type="fractalNoise" baseFrequency="0.85" numOctaves="2" seed="3"/>
      <feColorMatrix values="0 0 0 0 0  0 0 0 0 0  0 0 0 0 0  0 0 0 0.07 0"/>
      <feComposite in2="SourceGraphic" operator="in"/>
    </filter>
  </defs>

  <!-- Base stone gradient -->
  <rect width="2400" height="1600" fill="url(#bg_KHADANE™)"/>

  <!-- Stone-texture noise overlay -->
  <rect width="2400" height="1600" filter="url(#noise_KHADANE™)" opacity="0.6"/>

  <!-- Geological strata (subtle horizontal lines) -->
  <path d="M0,267 Q600,264 1200,267 T2400,267" stroke="#F0EDE6" stroke-opacity="0.062" stroke-width="1" fill="none"/>
    <path d="M0,533 Q600,530 1200,533 T2400,533" stroke="#F0EDE6" stroke-opacity="0.074" stroke-width="1" fill="none"/>
    <path d="M0,800 Q600,797 1200,800 T2400,800" stroke="#F0EDE6" stroke-opacity="0.086" stroke-width="1" fill="none"/>
    <path d="M0,1067 Q600,1064 1200,1067 T2400,1067" stroke="#F0EDE6" stroke-opacity="0.098" stroke-width="1" fill="none"/>
    <path d="M0,1333 Q600,1330 1200,1333 T2400,1333" stroke="#F0EDE6" stroke-opacity="0.110" stroke-width="1" fill="none"/>

  <!-- Top-left code -->
  
    <text x="72" y="40"
          font-family="JetBrains Mono, monospace" font-size="12"
          fill="#B8962E" letter-spacing="0.15em">KHADANE™</text>


  <!-- Gold corner marks -->
  
    <!-- Top-left corner -->
    <line x1="32" y1="32" x2="56" y2="32" stroke="#B8962E" stroke-width="1.5"/>
    <line x1="32" y1="32" x2="32" y2="56" stroke="#B8962E" stroke-width="1.5"/>
    <!-- Top-right -->
    <line x1="2344" y1="32" x2="2368" y2="32" stroke="#B8962E" stroke-width="1.5"/>
    <line x1="2368" y1="32" x2="2368" y2="56" stroke="#B8962E" stroke-width="1.5"/>
    <!-- Bottom-left -->
    <line x1="32" y1="1568" x2="56" y2="1568" stroke="#B8962E" stroke-width="1.5"/>
    <line x1="32" y1="1544" x2="32" y2="1568" stroke="#B8962E" stroke-width="1.5"/>
    <!-- Bottom-right -->
    <line x1="2344" y1="1568" x2="2368" y2="1568" stroke="#B8962E" stroke-width="1.5"/>
    <line x1="2368" y1="1544" x2="2368" y2="1568" stroke="#B8962E" stroke-width="1.5"/>


  <!-- Title -->
  <text x="1200" y="790"
        text-anchor="middle" font-family="Cormorant Garamond, Georgia, serif"
        font-size="32" font-weight="500" font-style="italic"
        fill="#F0EDE6" letter-spacing="-0.01em">The Bijolia Quarry Face</text>

  <!-- Subtitle -->
  

  <!-- Gold divider -->
  <line x1="1170" y1="836.0" x2="1230" y2="836.0" stroke="#B8962E" stroke-width="0.8"/>

  <!-- Spec lines -->
  <text x="1200" y="854" text-anchor="middle" font-family="JetBrains Mono, monospace" font-size="11" fill="#F0EDE6" fill-opacity="0.5" letter-spacing="0.05em">Documentary · mid-tone · late afternoon light</text>

  <!-- KHADANE™ brand mark -->
  
    <text x="2328" y="1572"
          text-anchor="end" font-family="Montserrat, sans-serif" font-weight="900" font-size="11"
          fill="#F0EDE6" fill-opacity="0.5" letter-spacing="0.2em">KHADANE</text>
    <text x="2338" y="1563"
          text-anchor="end" font-family="Montserrat, sans-serif" font-weight="700" font-size="7"
          fill="#B8962E" letter-spacing="0.1em">TM</text>


</svg>
