<svg xmlns="http://www.w3.org/2000/svg" viewBox="0 0 2100 900" width="2100" height="900" preserveAspectRatio="xMidYMid slice">
  <!-- Background gradient (stone tones) -->
  <defs>
    <radialGradient id="bg_GAL_021" cx="30%" cy="30%" r="80%">
      <stop offset="0%" stop-color="#999999" stop-opacity="1"/>
      <stop offset="55%" stop-color="#6B6B6B" stop-opacity="1"/>
      <stop offset="100%" stop-color="#4A4A4A" stop-opacity="1"/>
    </radialGradient>
    <filter id="noise_GAL_021">
      <feTurbulence type="fractalNoise" baseFrequency="0.85" numOctaves="2" seed="3"/>
      <feColorMatrix values="0 0 0 0 0  0 0 0 0 0  0 0 0 0 0  0 0 0 0.07 0"/>
      <feComposite in2="SourceGraphic" operator="in"/>
    </filter>
  </defs>

  <!-- Base stone gradient -->
  <rect width="2100" height="900" fill="url(#bg_GAL_021)"/>

  <!-- Stone-texture noise overlay -->
  <rect width="2100" height="900" filter="url(#noise_GAL_021)" opacity="0.6"/>

  <!-- Geological strata (subtle horizontal lines) -->
  <path d="M0,150 Q525,147 1050,150 T2100,150" stroke="#F0EDE6" stroke-opacity="0.062" stroke-width="1" fill="none"/>
    <path d="M0,300 Q525,297 1050,300 T2100,300" stroke="#F0EDE6" stroke-opacity="0.074" stroke-width="1" fill="none"/>
    <path d="M0,450 Q525,447 1050,450 T2100,450" stroke="#F0EDE6" stroke-opacity="0.086" stroke-width="1" fill="none"/>
    <path d="M0,600 Q525,597 1050,600 T2100,600" stroke="#F0EDE6" stroke-opacity="0.098" stroke-width="1" fill="none"/>
    <path d="M0,750 Q525,747 1050,750 T2100,750" stroke="#F0EDE6" stroke-opacity="0.110" stroke-width="1" fill="none"/>

  <!-- Top-left code -->
  
    <text x="72" y="40"
          font-family="JetBrains Mono, monospace" font-size="12"
          fill="#B8962E" letter-spacing="0.15em">GAL-021</text>


  <!-- Gold corner marks -->
  
    <!-- Top-left corner -->
    <line x1="32" y1="32" x2="56" y2="32" stroke="#B8962E" stroke-width="1.5"/>
    <line x1="32" y1="32" x2="32" y2="56" stroke="#B8962E" stroke-width="1.5"/>
    <!-- Top-right -->
    <line x1="2044" y1="32" x2="2068" y2="32" stroke="#B8962E" stroke-width="1.5"/>
    <line x1="2068" y1="32" x2="2068" y2="56" stroke="#B8962E" stroke-width="1.5"/>
    <!-- Bottom-left -->
    <line x1="32" y1="868" x2="56" y2="868" stroke="#B8962E" stroke-width="1.5"/>
    <line x1="32" y1="844" x2="32" y2="868" stroke="#B8962E" stroke-width="1.5"/>
    <!-- Bottom-right -->
    <line x1="2044" y1="868" x2="2068" y2="868" stroke="#B8962E" stroke-width="1.5"/>
    <line x1="2068" y1="844" x2="2068" y2="868" stroke="#B8962E" stroke-width="1.5"/>


  <!-- Title -->
  <text x="1050" y="440"
        text-anchor="middle" font-family="Cormorant Garamond, Georgia, serif"
        font-size="32" font-weight="500" font-style="italic"
        fill="#F0EDE6" letter-spacing="-0.01em">Kandla Grey · UK Patio</text>

  <!-- Subtitle -->
  

  <!-- Gold divider -->
  <line x1="1020" y1="486.0" x2="1080" y2="486.0" stroke="#B8962E" stroke-width="0.8"/>

  <!-- Spec lines -->
  <text x="1050" y="504" text-anchor="middle" font-family="JetBrains Mono, monospace" font-size="11" fill="#F0EDE6" fill-opacity="0.5" letter-spacing="0.05em">22mm calibrated paving · Surrey</text>

  <!-- KHADANE™ brand mark -->
  
    <text x="2028" y="872"
          text-anchor="end" font-family="Montserrat, sans-serif" font-weight="900" font-size="11"
          fill="#F0EDE6" fill-opacity="0.5" letter-spacing="0.2em">KHADANE</text>
    <text x="2038" y="863"
          text-anchor="end" font-family="Montserrat, sans-serif" font-weight="700" font-size="7"
          fill="#B8962E" letter-spacing="0.1em">TM</text>


</svg>
